<svg version="1.2" xmlns="http://www.w3.org/2000/svg" viewBox="0 0 30 33" width="30" height="33">
	<title>icon-svg</title>
	<defs>
		<linearGradient id="g1" x2="1" gradientUnits="userSpaceOnUse" gradientTransform="matrix(29.85,0,0,32.742,0,16.366)">
			<stop offset="0" stop-color="#278cff"/>
			<stop offset=".49" stop-color="#4ad8b9"/>
			<stop offset=".99" stop-color="#5ef084"/>
		</linearGradient>
	</defs>
	<style>
		.s0 { fill: url(#g1) } 
		.s1 { opacity: .7;fill: #64748b } 
	</style>
	<path id="Layer" fill-rule="evenodd" class="s0" d="m0.1 20.9q0-0.3 0-0.7 0-0.3 0-0.6 0-0.3 0-0.6 0-0.3 0-0.6c-0.3-2 0.5-3.6 1.7-5.1 3.1-4 6.1-8.1 9.2-12.1 1.2-1.6 1.9-1.6 3.2 0 1.8 2.4 3.6 4.9 5.4 7.3q0.1 0.2 0.3 0.3 0.2 0.2 0.4 0.2 0.2 0.1 0.4 0.1 0.2-0.1 0.4-0.2 3.6-1.3 7.2-2.6c1.1-0.4 1.4-0.3 1.4 0.8 0.3 3.2 0.1 6.4 0.1 9.5q0 0.2 0 0.3 0 0.2-0.1 0.4-0.1 0.1-0.2 0.2 0 0.2-0.1 0.3-5.4 7-10.7 14.1c-0.9 1.1-1.8 1.1-2.7-0.1-2-2.4-3.9-5-5.8-7.5q-0.1-0.2-0.3-0.3-0.2-0.2-0.4-0.2-0.2-0.1-0.4-0.1-0.3 0.1-0.5 0.2-3.4 1.3-6.9 2.6c-1.3 0.4-1.6 0.2-1.6-1.1q0-2.3 0-4.5zm17.2 1.5c0.7 0 2.7-2.3 2.6-3q0 0 0-0.1 0-0.1 0-0.1-0.1-0.1-0.1-0.1 0-0.1-0.1-0.1c-2-2.7-4.1-5.4-6.2-8.1q-0.1-0.2-0.4-0.4-0.3-0.1-0.6-0.1-0.3 0-0.6 0.1-0.2 0.2-0.4 0.4c-0.4 0.6-0.8 1.1-1.2 1.6-0.5 0.5-0.4 1 0 1.5q2.9 3.9 5.8 7.7 0.1 0.1 0.3 0.3 0.1 0.1 0.2 0.2 0.2 0.1 0.4 0.1 0.1 0.1 0.3 0.1z"/>
	<path id="Capa 1" class="s1" d="m0 0h30v33h-30z"/>
</svg>
